<?xml version="1.0" standalone="no"?>
<!DOCTYPE svg PUBLIC "-//W3C//DTD SVG 20010904//EN"
 "http://www.w3.org/TR/2001/REC-SVG-20010904/DTD/svg10.dtd">
<svg version="1.0" xmlns="http://www.w3.org/2000/svg"
 width="140px" height="60px" viewBox="0 0 20000.000000 8000.000000"
 preserveAspectRatio="xMidYMid meet">

<g transform="translate(0.000000,8000.000000) scale(0.100000,-0.100000)"
fill="#000000" stroke="none">
<path d="M5290 40000 l0 -36630 18800 0 18800 0 0 4088 0 4089 8855 8852 8855
8853 0 8946 0 8947 -9338 9338 -9337 9337 -510 -508 c-280 -279 -4485 -4481
-9342 -9337 l-8833 -8830 0 -8947 0 -8946 8855 -8853 8855 -8852 0 -3089 0
-3088 -16830 0 -16830 0 0 34630 0 34630 34630 0 34630 0 0 -34630 0 -34630
-15860 0 -15860 0 0 -1000 0 -1000 16860 0 16860 0 0 36630 0 36630 -36630 0
-36630 0 0 -36630z m27775 -2060 l-7885 -7885 0 8145 0 8145 7883 7883 7882
7882 3 -8142 2 -8143 -7885 -7885z m25595 260 l0 -8145 -7885 7885 -7885 7885
0 8145 0 8145 7885 -7885 7885 -7885 0 -8145z m-17710 -1022 l0 -5903 -2952
2952 -2953 2953 2950 2950 c1622 1622 2951 2950 2952 2950 2 0 3 -2656 3
-5902z m4892 -2950 l-2952 -2953 0 5905 0 5905 2952 -2953 2953 -2952 -2953
-2952z m-8528 -2054 l3636 -3635 0 -2950 0 -2950 -5111 5112 -5112 5111 1474
1474 c811 811 1475 1474 1476 1474 1 0 1638 -1636 3637 -3636z m14325 2162
l1474 -1474 -5112 -5111 -5111 -5112 0 2950 0 2950 3633 3634 c1997 1999 3634
3635 3637 3636 3 1 668 -662 1479 -1473z m-16482 -8638 l5793 -5793 0 -2807
c0 -1545 -2 -2808 -5 -2808 -3 0 -3244 3238 -7202 7196 l-7196 7196 1404 1404
c772 772 1406 1404 1409 1404 3 0 2612 -2607 5797 -5792z m20732 4388 l1404
-1404 -7196 -7196 c-3958 -3958 -7199 -7196 -7202 -7196 -3 0 -5 1263 -5 2807
l0 2808 5792 5792 c3186 3186 5795 5793 5798 5793 3 0 637 -632 1409 -1404z"/>
<path d="M84040 67240 l0 -9390 880 0 880 0 0 7800 0 7800 53 -1 52 0 4725
-7800 4725 -7799 877 0 878 0 0 9390 0 9390 -880 0 -880 0 0 -7596 0 -7595
-50 3 -51 3 -4518 7590 -4518 7590 -1086 3 -1087 2 0 -9390z"/>
<path d="M100830 67240 l0 -9390 4855 0 4855 0 0 890 0 890 -3950 0 -3950 0 0
3490 0 3490 3900 0 3900 0 0 890 0 890 -3900 0 -3900 0 0 3215 0 3215 3950 0
3950 0 0 905 0 905 -4855 0 -4855 0 0 -9390z"/>
<path d="M112807 76568 c8 -35 1030 -4259 2272 -9388 l2258 -9325 1214 -3
1214 -2 1975 7512 1975 7513 55 0 55 0 1732 -7000 c952 -3850 1789 -7231 1858
-7512 l127 -513 1213 0 c1147 0 1214 1 1219 18 10 35 4616 18749 4616 18755 0
4 -458 7 -1019 7 l-1018 0 -6 -27 c-4 -20 -3691 -15740 -3732 -15910 -5 -20
-12 -23 -59 -23 l-54 0 -106 428 c-231 936 -3825 15450 -3835 15490 l-12 42
-993 0 -994 0 -7 -27 c-3 -16 -922 -3585 -2040 -7933 -1119 -4348 -2039 -7926
-2046 -7952 l-11 -48 -54 0 c-41 0 -54 4 -58 18 -3 9 -836 3583 -1851 7942
-1015 4359 -1850 7942 -1856 7963 l-10 37 -1018 0 -1019 0 15 -62z"/>
<path d="M107550 50049 c-1920 -99 -3604 -985 -4858 -2557 -760 -952 -1348
-2179 -1716 -3582 -389 -1482 -519 -3368 -356 -5165 115 -1258 375 -2381 800
-3445 387 -971 861 -1763 1499 -2505 118 -137 459 -483 611 -619 1002 -901
2199 -1452 3519 -1620 379 -49 1001 -66 1346 -38 1342 110 2463 566 3490 1421
172 143 585 551 729 721 722 848 1262 1825 1675 3035 368 1075 582 2181 666
3440 48 721 48 1576 0 2310 -114 1742 -506 3299 -1175 4662 -644 1313 -1475
2296 -2516 2977 -1080 705 -2352 1036 -3714 965z m800 -1954 c417 -45 830
-146 1195 -290 170 -67 496 -229 655 -325 338 -204 620 -430 920 -736 718
-732 1261 -1733 1625 -2994 241 -834 377 -1719 425 -2765 13 -282 13 -1105 0
-1390 -57 -1265 -248 -2334 -591 -3307 -524 -1487 -1327 -2571 -2374 -3203
-706 -427 -1506 -645 -2363 -645 -1144 0 -2180 375 -3067 1111 -142 118 -511
491 -637 644 -569 691 -985 1491 -1293 2485 -342 1103 -502 2366 -482 3815 8
539 23 818 68 1285 169 1725 701 3254 1510 4335 435 582 972 1066 1539 1387
522 296 1064 483 1640 567 117 17 197 26 430 45 109 9 664 -4 800 -19z"/>
<path d="M84040 40280 l0 -9390 905 0 905 0 0 4380 0 4380 4725 0 4725 0 0
-4380 0 -4380 895 0 895 0 0 9390 0 9390 -895 0 -895 0 0 -4120 0 -4120 -4725
0 -4725 0 0 4120 0 4120 -905 0 -905 0 0 -9390z"/>
<path d="M118450 40280 l0 -9390 890 0 890 0 0 7580 0 7580 54 0 54 0 146
-327 c81 -181 1149 -2567 2374 -5303 l2228 -4975 790 -3 790 -2 2400 5302
2400 5303 52 3 52 3 0 -7580 0 -7581 895 0 895 0 0 9390 0 9390 -1139 0 -1139
0 -71 -162 c-40 -90 -1184 -2687 -2544 -5773 l-2472 -5610 -53 0 -53 0 -2517
5770 -2517 5770 -1203 3 -1202 2 0 -9390z"/>
<path d="M137080 40280 l0 -9390 4855 0 4855 0 0 890 0 890 -3950 0 -3950 0 0
3490 0 3490 3900 0 3900 0 0 890 0 890 -3900 0 -3900 0 0 3215 0 3215 3950 0
3950 0 0 905 0 905 -4855 0 -4855 0 0 -9390z"/>
<path d="M90739 23089 c-1296 -59 -2483 -411 -3443 -1021 -594 -377 -1163
-910 -1623 -1519 -851 -1125 -1452 -2711 -1712 -4514 -226 -1576 -240 -3527
-36 -5160 253 -2014 903 -3734 1866 -4935 426 -532 910 -975 1454 -1333 501
-329 1083 -591 1711 -771 1101 -315 2396 -381 3439 -175 983 194 1901 636
2690 1295 169 142 485 452 638 627 839 960 1381 2168 1617 3599 33 201 85 626
78 634 -6 6 -1770 185 -1775 180 -2 -2 -13 -64 -23 -137 -234 -1577 -824
-2707 -1821 -3485 -895 -699 -2082 -1000 -3404 -863 -828 85 -1586 353 -2199
777 -514 355 -1004 881 -1358 1457 -551 897 -926 2069 -1097 3430 -95 758
-126 1381 -118 2350 7 763 27 1139 93 1735 169 1525 581 2814 1201 3760 204
311 392 541 667 815 360 359 704 610 1122 818 846 422 1910 590 2974 471 1265
-141 2325 -737 3008 -1691 195 -273 412 -672 541 -998 190 -479 334 -1036 413
-1602 22 -162 23 -163 48 -163 45 1 1749 176 1754 181 14 15 -69 604 -129 904
-391 1972 -1453 3571 -2977 4486 -1057 635 -2229 911 -3599 848z"/>
<path d="M185735 23094 c-226 -14 -398 -27 -510 -40 -926 -105 -1818 -398
-2504 -822 -760 -468 -1308 -1044 -1720 -1809 -434 -803 -597 -1774 -486
-2895 119 -1193 574 -2171 1328 -2856 920 -836 2206 -1453 3918 -1882 914
-229 1494 -431 2070 -721 545 -274 946 -577 1240 -939 420 -514 645 -1083 720
-1815 19 -180 16 -664 -5 -875 -109 -1100 -557 -1887 -1401 -2456 -707 -477
-1551 -704 -2540 -681 -854 20 -1484 211 -2145 652 -345 230 -630 493 -895
825 -531 665 -886 1566 -1001 2543 -5 47 -9 57 -23 53 -9 -3 -414 -107 -901
-232 -487 -125 -886 -228 -888 -229 -1 -1 7 -76 19 -166 99 -785 300 -1455
623 -2084 798 -1551 2139 -2574 3878 -2960 1122 -249 2414 -210 3508 105 1451
418 2541 1311 3156 2585 268 556 420 1120 490 1815 22 221 30 811 15 1063 -85
1401 -539 2498 -1380 3337 -653 652 -1537 1152 -2746 1556 -368 122 -576 182
-1135 324 -794 201 -1224 334 -1710 525 -1250 494 -1950 1095 -2253 1937 -212
588 -252 1379 -102 1995 101 411 298 808 571 1153 113 142 384 404 534 517
404 301 855 509 1385 639 368 89 651 124 1085 131 321 6 517 -3 755 -33 943
-119 1744 -578 2253 -1290 437 -613 681 -1448 709 -2426 l6 -218 36 1 c20 0
419 39 886 87 l850 87 3 90 c7 179 -33 689 -79 1000 -144 992 -463 1827 -950
2485 -185 251 -453 539 -684 736 -813 692 -1846 1078 -3145 1174 -148 11 -727
21 -835 14z"/>
<path d="M105147 22703 c-4 -7 -6103 -18635 -6133 -18731 l-13 -42 981 2 981
3 632 1935 632 1935 4056 3 4055 2 647 -1940 647 -1940 993 0 994 0 -15 48
c-8 26 -1390 4250 -3072 9387 l-3058 9340 -1162 3 c-638 1 -1163 -1 -1165 -5z
m2902 -7920 c943 -2870 1716 -5224 1718 -5230 4 -10 -696 -13 -3482 -13
l-3486 0 7 23 c5 16 3229 9840 3395 10345 l31 92 52 0 52 0 1713 -5217z"/>
<path d="M115920 13320 l0 -9391 3258 4 c2338 3 3297 7 3397 15 413 34 676 65
955 113 1469 251 2583 874 3324 1859 582 773 899 1685 1003 2880 21 250 24
987 5 1225 -51 617 -163 1111 -364 1610 -125 308 -230 508 -403 770 -472 712
-1070 1171 -1965 1509 l-35 14 128 60 c612 291 1100 734 1449 1314 297 495
503 1083 587 1678 41 291 46 367 46 775 0 406 -7 525 -45 835 -140 1109 -590
2081 -1284 2774 -741 738 -1736 1184 -2936 1316 -256 28 -508 30 -3757 30
l-3363 0 0 -9390z m6690 7600 c691 -49 1300 -276 1790 -666 132 -105 376 -355
473 -485 442 -592 656 -1286 657 -2130 0 -844 -278 -1614 -792 -2190 -384
-430 -927 -743 -1495 -863 -303 -64 -102 -60 -2935 -63 l-2578 -4 0 3206 0
3205 2368 0 c1509 0 2420 -4 2512 -10z m320 -8060 c840 -58 1515 -348 2072
-888 522 -507 813 -1140 914 -1992 22 -184 30 -716 15 -936 -53 -753 -244
-1366 -583 -1874 -121 -182 -202 -283 -348 -434 -602 -622 -1400 -960 -2445
-1036 -89 -6 -991 -10 -2482 -10 l-2343 0 0 3590 0 3590 2528 0 c1588 0 2581
-4 2672 -10z"/>
<path d="M130820 13320 l0 -9390 905 0 905 0 0 9390 0 9390 -905 0 -905 0 0
-9390z"/>
<path d="M136430 13320 l0 -9390 880 0 880 0 0 7800 0 7800 53 -1 52 0 4725
-7800 4725 -7799 877 0 878 0 0 9390 0 9390 -880 0 -880 0 0 -7596 0 -7595
-50 3 -51 3 -4518 7590 -4518 7590 -1086 3 -1087 2 0 -9390z"/>
<path d="M153220 13320 l0 -9390 4855 0 4855 0 0 890 0 890 -3950 0 -3950 0 0
3490 0 3490 3900 0 3900 0 0 890 0 890 -3900 0 -3900 0 0 3215 0 3215 3950 0
3950 0 0 905 0 905 -4855 0 -4855 0 0 -9390z"/>
<path d="M165540 21805 l0 -905 2650 0 2650 0 0 -8485 0 -8485 955 0 955 0 0
8485 0 8485 2635 0 2635 0 0 905 0 905 -6240 0 -6240 0 0 -905z"/>
</g>
</svg>
